<?xml version="1.0" encoding="UTF-8"?>
<svg id="Layer_1" data-name="Layer 1" xmlns="http://www.w3.org/2000/svg" viewBox="0 0 170 170">
  <defs>
    <style>
      .cls-1 {
        fill: #66bc47;
      }

      .cls-2 {
        fill: none;
        stroke: #66bc47;
      }
    </style>
  </defs>
  <polygon class="cls-1" points="163.66 136.3 160.66 7.34 163.66 10.34 8.34 10.34 11.34 7.34 11.34 162.66 8.34 159.66 128.82 162.66 8.34 165.66 5.34 165.74 5.34 162.66 5.34 7.34 5.34 4.34 8.34 4.34 163.66 4.34 166.73 4.34 166.66 7.34 163.66 136.3 163.66 136.3"/>
  <g>
    <path class="cls-1" d="M76.23,91.91l-6.73-13.14h-11.67v26.03h-14.65V33.7h26.42c8.4,0,14.88,1.87,19.43,5.62,4.56,3.74,6.84,9.03,6.84,15.87,0,4.85-1.05,8.9-3.15,12.13-2.1,3.24-5.28,5.82-9.55,7.74l5.04,10.93-.71.9c-.54.68-1.43.98-2.26.76l-1.42-.38c-1.18-.31-2.38.41-2.67,1.59l-.39,1.64c-.26,1.06-1.27,1.77-2.35,1.65l-2.16-.24ZM57.83,66.9h11.82c3.68,0,6.53-.94,8.54-2.81,2.02-1.87,3.03-4.45,3.03-7.74s-.95-5.99-2.86-7.91c-1.9-1.92-4.83-2.88-8.76-2.88h-11.77v21.34Z"/>
    <path class="cls-2" d="M86.4,83.72c1.84,1.79,3.63,11.32,6.01,11.38,5.8-5.3,9.4-11.7,12.3-18.8,1.2-3.5,2.4-9.4,7.1-9.4.6,0,1.7,0,1.7.6,0,21.7,4.7,43.5,15.3,62.3v4.7c0,.6-1.7,1.2-1.7,1.2-7.7,0-12.4.6-18.9.6h-2.3c-.6-1.2-.6-1.8-.6-2.9,0-3,1.8-5.3,2.4-7.7v-4.7c0-5.9-1.2-12.3-4.8-17.1-4.1,0-9.4,18.3-10,18.3-.5,0-14.77-27.41-16.65-31.31"/>
  </g>
</svg>