<?xml version="1.0" encoding="UTF-8" standalone="no"?>
<!-- Created with Inkscape (http://www.inkscape.org/) -->

<svg
   xmlns:dc="http://purl.org/dc/elements/1.1/"
   xmlns:cc="http://creativecommons.org/ns#"
   xmlns:rdf="http://www.w3.org/1999/02/22-rdf-syntax-ns#"
   xmlns:svg="http://www.w3.org/2000/svg"
   xmlns="http://www.w3.org/2000/svg"
   xmlns:sodipodi="http://sodipodi.sourceforge.net/DTD/sodipodi-0.dtd"
   xmlns:inkscape="http://www.inkscape.org/namespaces/inkscape"
   width="141.11108mm"
   height="134.38397mm"
   viewBox="0 0 499.9999 476.16368"
   id="svg4241"
   version="1.1"
   inkscape:version="0.91 r13725"
   sodipodi:docname="Fédération Wallonie-Bruxelles logo 2011.svg">
  <defs
     id="defs4243" />
  <sodipodi:namedview
     id="base"
     pagecolor="#ffffff"
     bordercolor="#666666"
     borderopacity="1.0"
     inkscape:pageopacity="0.0"
     inkscape:pageshadow="2"
     inkscape:zoom="1.0195652"
     inkscape:cx="247.14286"
     inkscape:cy="237.14286"
     inkscape:document-units="px"
     inkscape:current-layer="layer1"
     showgrid="false"
     fit-margin-top="0"
     fit-margin-left="0"
     fit-margin-right="0"
     fit-margin-bottom="0"
     inkscape:window-width="1366"
     inkscape:window-height="705"
     inkscape:window-x="-8"
     inkscape:window-y="-8"
     inkscape:window-maximized="1" />
  <metadata
     id="metadata4246">
    <rdf:RDF>
      <cc:Work
         rdf:about="">
        <dc:format>image/svg+xml</dc:format>
        <dc:type
           rdf:resource="http://purl.org/dc/dcmitype/StillImage" />
        <dc:title></dc:title>
      </cc:Work>
    </rdf:RDF>
  </metadata>
  <g
     inkscape:label="Calque 1"
     inkscape:groupmode="layer"
     id="layer1"
     transform="translate(-319.9917,-445.85796)">
    <path
       d="m 437.57361,445.85796 c -10.32048,0 -17.36584,5.74486 -17.77548,9.63841 -0.43151,4.30516 2.31465,8.5109 6.03122,11.39626 27.26274,21.32102 -51.38561,62.78983 -41.68755,147.25265 6.87634,59.73147 75.63772,141.2095 89.81395,141.2095 0.53691,0 1.00421,-0.12329 1.37805,-0.3639 10.95084,-7.09309 -32.23208,-85.34374 -42.12303,-111.16281 -21.95536,-57.94975 11.19542,-95.02192 24.12882,-116.58554 16.98205,-28.36837 21.12814,-55.2175 7.86265,-68.17278 -10.10968,-9.91282 -19.81371,-13.21179 -27.62863,-13.21179"
       style="fill:#e51b24;fill-opacity:1;fill-rule:nonzero;stroke:none"
       id="path84"
       inkscape:connector-curvature="0" />
    <path
       d="m 635.67774,469.47274 c -0.91671,0 -1.8553,0.0159 -2.81576,0.0597 -100.16425,4.50203 -114.83165,127.34547 -115.07425,171.84877 0,3.82196 0.30027,23.30955 -4.16995,23.30955 -0.90279,0 -2.00642,-0.80734 -3.35863,-2.71832 -5.20796,-7.43511 -20.07222,-29.05043 -24.50863,-34.86887 -1.27664,-1.65645 -3.01063,-2.48964 -4.70486,-2.48964 -3.55947,0 -6.9181,3.67679 -5.38295,11.09401 0.77552,3.76627 10.71221,45.73023 24.99582,62.99663 4.1083,5.00712 13.55581,12.07436 23.32148,12.07436 9.5012,0 19.31658,-6.68544 24.83277,-28.46382 9.55687,-33.69366 -1.78769,-167.64105 112.3261,-182.95074 9.02196,-1.22096 12.49592,-11.93118 7.19251,-18.2388 -3.76428,-4.46027 -15.22418,-11.65279 -32.65365,-11.65279"
       style="fill:#fab20b;fill-opacity:1;fill-rule:nonzero;stroke:none"
       id="path88"
       inkscape:connector-curvature="0" />
    <path
       d="m 696.78686,589.60881 c -3.60918,-1.13546 -3.77025,-3.37653 -1.11159,-7.35558 4.55772,-6.80077 23.1803,-47.83608 0.23266,-69.37584 -1.86325,-1.75587 -4.29323,-3.57339 -6.91412,-4.84008 -4.21966,-2.02035 -9.52506,0.12917 -9.44949,7.22433 0.54088,52.02989 -25.03759,62.0143 -60.83709,62.39411 l -4.25347,0 0,23.91009 31.69717,2.19136 0.57667,0.0576 c 34.25244,2.69246 54.86952,25.32393 54.86952,51.40549 0,31.36111 -26.05174,51.62821 -54.86156,51.62821 -9.56085,0 -19.36431,-1.9766 -27.28661,-6.936 -1.49737,-0.93858 -3.51771,-2.39618 -5.08467,-3.5873 0,4.0566 0.0299,51.02767 0.0299,51.02767 10.93095,5.2 23.32546,8.28819 39.36495,8.28819 46.10606,0 103.76747,-33.97801 103.76747,-93.37939 0,-30.9634 -25.67392,-61.65437 -60.73966,-72.65293"
       style="fill:#1b4690;fill-opacity:1;fill-rule:nonzero;stroke:none"
       id="path92"
       inkscape:connector-curvature="0" />
    <path
       d="m 818.32522,908.30874 c -1.11358,-1.38203 -3.25323,-2.92115 -6.4488,-4.60146 l -0.70593,-0.39771 c -1.67633,-0.867 -2.80582,-1.60077 -3.38249,-2.19136 -0.56872,-0.59457 -0.85706,-1.32834 -0.85706,-2.21522 0,-1.07778 0.31618,-1.88911 0.94456,-2.43197 0.62837,-0.54486 1.56895,-0.81928 2.8257,-0.81928 1.02807,0 1.94279,0.1909 2.72826,0.5727 0.78746,0.37583 1.53515,0.99426 2.23511,1.85132 l 3.25125,-3.06631 -0.33209,-0.32811 c -1.01813,-1.02211 -2.20528,-1.79962 -3.54555,-2.33652 -1.34623,-0.5389 -2.79587,-0.80735 -4.33698,-0.80735 -2.57117,0 -4.59947,0.66815 -6.10081,2.01438 -1.48941,1.34425 -2.24505,3.17767 -2.24505,5.4963 0,0.95052 0.13124,1.81354 0.3977,2.58907 0.2605,0.77354 0.65821,1.47549 1.1971,2.10983 0.57866,0.67411 1.35816,1.36015 2.34249,2.04818 0.97835,0.68804 2.22118,1.43175 3.71855,2.23312 l 0.7278,0.37584 c 1.87717,0.99028 3.11205,1.88313 3.71457,2.67059 0.60452,0.78547 0.90081,1.69025 0.90081,2.71037 0,1.25675 -0.39572,2.24704 -1.19312,2.9808 -0.78945,0.72781 -1.86922,1.09966 -3.25324,1.09966 -1.14937,0 -2.20528,-0.26447 -3.17767,-0.78746 -0.95847,-0.52298 -2.03625,-1.42378 -3.22142,-2.69445 l -3.19159,3.26914 0.31419,0.2943 c 1.45163,1.44765 2.90723,2.49163 4.37079,3.12398 1.45958,0.63434 3.12199,0.95052 4.98922,0.95052 2.76605,0 4.9594,-0.74172 6.57806,-2.22318 1.61469,-1.47946 2.42203,-3.51771 2.42203,-6.09683 0,-2.20528 -0.55878,-4.0049 -1.66639,-5.39289 m -36.93098,8.62226 c -0.2605,0 -0.4673,0.0199 -0.59855,0.0735 -0.14126,0.0458 -0.28833,0.13124 -0.43747,0.25851 l -0.13729,-0.14524 c 0.10531,-0.15702 0.18493,-0.30425 0.24459,-0.44742 0.0517,-0.14525 0.0795,-0.33607 0.0795,-0.58861 l 0,-6.47863 c 0,-0.2088 -0.0278,-0.38776 -0.0795,-0.54883 -0.0597,-0.15702 -0.1392,-0.3122 -0.24459,-0.46532 l 0.15701,-0.16306 c 0.15702,0.12122 0.29033,0.20482 0.41759,0.24658 0.11741,0.0398 0.32214,0.0695 0.59855,0.0795 l 9.91083,0 0,-4.44635 -9.91083,0 c -0.24857,0 -0.43946,0.0199 -0.57071,0.0636 -0.12726,0.0379 -0.28635,0.13124 -0.46531,0.26845 l -0.15909,-0.16704 c 0.13522,-0.20879 0.22868,-0.38378 0.27044,-0.51701 0.0477,-0.14127 0.0756,-0.30226 0.0756,-0.49913 l 0,-5.98149 c 0,-0.20681 -0.0278,-0.38976 -0.0795,-0.54685 -0.0597,-0.15717 -0.1392,-0.32214 -0.24459,-0.48918 l 0.13729,-0.16107 c 0.2068,0.13522 0.38577,0.2247 0.53491,0.2784 0.13522,0.0458 0.31021,0.0716 0.50111,0.0716 l 11.34655,0 -0.50111,-4.53584 -16.40736,0 0,29.37258 16.3656,0 0.54287,-4.53186 -11.34655,0 z m -24.272,0 c -0.25851,0 -0.45736,0.0199 -0.59855,0.0735 -0.13522,0.0458 -0.27044,0.13124 -0.4156,0.25851 l -0.16902,-0.16704 c 0.12933,-0.1392 0.21873,-0.27044 0.26646,-0.39174 0.0477,-0.1252 0.0716,-0.33208 0.0716,-0.62241 l 0,-24.03139 -4.84605,0 0,29.41235 14.92392,0 0.72382,-4.53186 -9.95657,0 z m -24.44898,0 c -0.26248,0 -0.46929,0.0199 -0.60053,0.0735 -0.13729,0.0458 -0.27641,0.13124 -0.4176,0.25851 l -0.16107,-0.16704 c 0.12329,-0.1392 0.2088,-0.27044 0.25056,-0.39174 0.0517,-0.1252 0.0795,-0.33208 0.0795,-0.62241 l 0,-24.03139 -4.84406,0 0,29.41235 14.92591,0 0.72382,-4.53186 -9.95657,0 z m -27.50932,0 c -0.26249,0 -0.45935,0.0199 -0.60054,0.0735 -0.14127,0.0458 -0.28635,0.13124 -0.43947,0.25851 l -0.13728,-0.14524 c 0.10738,-0.15702 0.18891,-0.30425 0.24459,-0.44742 0.0557,-0.14525 0.0835,-0.33607 0.0835,-0.58861 l 0,-6.47863 c 0,-0.2088 -0.0278,-0.38776 -0.0835,-0.54883 -0.0557,-0.15702 -0.13729,-0.3122 -0.24459,-0.46532 l 0.16504,-0.16306 c 0.14906,0.12122 0.28436,0.20482 0.41163,0.24658 0.12727,0.0398 0.32015,0.0695 0.60054,0.0795 l 9.91481,0 0,-4.44635 -9.91481,0 c -0.25255,0 -0.43947,0.0199 -0.57071,0.0636 -0.13124,0.0379 -0.28237,0.13124 -0.46929,0.26845 l -0.15702,-0.16704 c 0.13729,-0.20879 0.22669,-0.38378 0.2784,-0.51701 0.0418,-0.14127 0.0697,-0.30226 0.0697,-0.49913 l 0,-5.98149 c 0,-0.20681 -0.0278,-0.38976 -0.0835,-0.54685 -0.0557,-0.15717 -0.13728,-0.32214 -0.24458,-0.48918 l 0.13728,-0.16107 c 0.21079,0.13522 0.38777,0.2247 0.52895,0.2784 0.15113,0.0458 0.31618,0.0716 0.51106,0.0716 l 11.33859,0 -0.49514,-4.53584 -16.40935,0 0,29.37258 16.36759,0 0.5369,-4.53186 -11.33859,0 z m -22.70106,-9.74777 c -0.13522,-0.26249 -0.25255,-0.43151 -0.34203,-0.50907 -0.0854,-0.0716 -0.21277,-0.13522 -0.35794,-0.17499 l 0,-0.16504 c 0.14525,-0.0398 0.27243,-0.0994 0.35794,-0.175 0.0896,-0.0756 0.20681,-0.24458 0.34203,-0.50906 l 7.71748,-13.55979 -5.30341,0 -4.39863,8.26235 c -0.36191,0.66019 -0.60053,1.20306 -0.72382,1.61468 -0.12727,0.41362 -0.22471,1.0758 -0.2943,1.98654 l -0.2088,0 c -0.0657,-0.85904 -0.16704,-1.50134 -0.29828,-1.93682 -0.12727,-0.4335 -0.37583,-0.99029 -0.73377,-1.6644 l -4.40658,-8.26235 -5.29546,0 7.67374,13.55979 c 0.12727,0.22073 0.23664,0.37981 0.34004,0.47924 0.10531,0.0954 0.23465,0.16504 0.38776,0.20482 l 0,0.16504 c -0.15303,0.0398 -0.28237,0.11136 -0.38776,0.20681 -0.1034,0.0955 -0.21277,0.25652 -0.34004,0.47725 l -7.96605,14.27963 5.34318,0 4.65117,-8.94441 c 0.41759,-0.79541 0.68008,-1.40986 0.79343,-1.8374 0.12122,-0.42952 0.19686,-1.01614 0.23862,-1.75985 l 0.2088,0 c 0.0695,0.84115 0.16305,1.47152 0.28436,1.89308 0.11326,0.41958 0.35793,0.99029 0.73376,1.70417 l 4.65714,8.94441 5.33722,0 -8.0098,-14.27963 z m -22.90389,-15.09295 -4.82816,0 0,16.99995 c 0,2.81178 -0.56076,4.91167 -1.69224,6.29966 -1.13942,1.38601 -2.84359,2.07802 -5.13836,2.07802 -2.28681,0 -3.99694,-0.69201 -5.1304,-2.07802 -1.13347,-1.38799 -1.69622,-3.48788 -1.69622,-6.29966 l 0,-16.99995 -4.8202,0 0,16.52071 c 0,2.428 0.2426,4.41056 0.72184,5.93974 0.47923,1.53117 1.22692,2.82173 2.23908,3.86968 1.10364,1.1613 2.40016,2.05018 3.89752,2.6706 1.50134,0.61843 3.09614,0.93063 4.78838,0.93063 1.69821,0 3.29897,-0.3122 4.79634,-0.93063 1.49338,-0.62042 2.79786,-1.5093 3.90149,-2.6706 1.00421,-1.04795 1.74991,-2.33851 2.23511,-3.86968 0.48719,-1.52918 0.72582,-3.51174 0.72582,-5.93974 l 0,-16.52071 z m -39.42063,17.72178 c -0.27243,-0.39969 -0.61048,-0.77751 -1.01415,-1.13147 -0.39174,-0.34998 -0.86103,-0.68206 -1.4039,-1.00222 l 0.0835,-0.14524 c 0.36191,0.0975 0.68206,0.17101 0.97637,0.21675 0.29032,0.0536 0.56474,0.0735 0.82723,0.0735 1.8195,0 3.35067,-0.72184 4.60543,-2.16353 1.24283,-1.43969 1.8732,-3.20948 1.8732,-5.30738 0,-2.68054 -0.81729,-4.72276 -2.44589,-6.13859 -1.62463,-1.41186 -4.00888,-2.12376 -7.13684,-2.12376 l -7.76521,0 0,29.37258 4.63526,0 0,-10.35228 c 0,-1.09966 -0.0297,-1.91098 -0.0815,-2.43794 -0.0597,-0.52696 -0.16306,-1.13346 -0.30822,-1.8215 l 0.20482,-0.0616 c 0.23067,0.62042 0.47128,1.15534 0.71388,1.60275 0.24459,0.44941 0.64429,1.07182 1.21301,1.87519 l 7.52857,11.19542 5.26165,0 -7.7672,-11.65079 z m 0.39771,-6.24 c -0.75962,0.68007 -1.94279,1.0221 -3.56146,1.0221 l -2.85553,0 c -0.26248,0 -0.45935,0.0239 -0.58661,0.0756 -0.13522,0.0458 -0.27243,0.13331 -0.42754,0.2585 l -0.16306,-0.16504 c 0.16306,-0.17897 0.27641,-0.348 0.33805,-0.50111 0.0636,-0.14715 0.0934,-0.32016 0.0934,-0.51503 l 0,-6.72919 c -0.0557,-0.24856 -0.11326,-0.44344 -0.17499,-0.59059 -0.0636,-0.14127 -0.14524,-0.29033 -0.25652,-0.44344 l 0.16306,-0.16306 c 0.17897,0.13728 0.3301,0.22669 0.45935,0.26646 0.11741,0.0458 0.30226,0.0597 0.5548,0.0597 l 2.85553,0 c 1.60077,0 2.78792,0.34401 3.55152,1.03005 0.76558,0.68008 1.14539,1.73798 1.14539,3.17569 0,1.46157 -0.37384,2.53338 -1.13545,3.21943 m -23.53823,4.61339 c -0.98432,-1.20505 -2.34448,-1.97064 -4.06257,-2.28681 l 0,-0.24857 c 1.44964,-0.42753 2.52941,-1.11954 3.22937,-2.07801 0.70394,-0.96046 1.05989,-2.2192 1.05989,-3.77821 0,-2.50157 -0.80337,-4.40459 -2.40214,-5.721 -1.60674,-1.32436 -3.96712,-1.98257 -7.08514,-1.98257 l -8.19473,0 0,29.37258 8.81913,0 c 3.1737,0 5.64743,-0.81331 7.42716,-2.45384 1.78371,-1.63259 2.6706,-3.74043 2.6706,-6.32154 0,-1.79365 -0.48719,-3.29698 -1.46157,-4.50203 m -5.25569,-5.09462 c -0.73376,0.7119 -1.78769,1.06983 -3.15381,1.06983 l -3.78616,0 c -0.25254,0 -0.43549,0.022 -0.55877,0.0695 -0.12536,0.0496 -0.27641,0.14318 -0.45339,0.28038 l -0.16505,-0.16504 c 0.0143,-0.0278 0.0339,-0.0616 0.0616,-0.10548 0.20681,-0.31418 0.31021,-0.62439 0.31021,-0.93063 l 0,-6.3096 c -0.0143,-0.19488 -0.0477,-0.35595 -0.0935,-0.48918 -0.0517,-0.12934 -0.13729,-0.30425 -0.2784,-0.52696 l 0.16505,-0.16306 c 0.15908,0.13729 0.30425,0.22669 0.43151,0.26646 0.12536,0.0458 0.31817,0.0597 0.58065,0.0597 l 3.22739,0 c 1.6982,0 2.92711,0.31816 3.68872,0.94853 0.75564,0.62439 1.13148,1.60076 1.13148,2.92512 0,1.33828 -0.36589,2.36437 -1.10762,3.07029 m 0.88689,12.96124 c -0.92864,0.83717 -2.21522,1.25278 -3.87167,1.25278 l -3.91542,0 c -0.25055,0 -0.43349,0.0219 -0.56474,0.0716 -0.11724,0.0477 -0.26845,0.14127 -0.45338,0.27641 l -0.15702,-0.18493 c 0.14715,-0.19488 0.24061,-0.34203 0.27243,-0.45339 0.0438,-0.11342 0.0578,-0.29828 0.0578,-0.55877 l 0,-7.5763 c 0,-0.20681 -0.0143,-0.37385 -0.0578,-0.49714 -0.0318,-0.12329 -0.1252,-0.30027 -0.27243,-0.51702 l 0.15702,-0.18692 c 0.18493,0.13729 0.33606,0.23067 0.45338,0.28039 0.13125,0.0496 0.31419,0.0697 0.56474,0.0697 l 3.7464,0 c 1.04994,0 1.89109,0.10134 2.52543,0.30226 0.63633,0.20084 1.19113,0.54883 1.66042,1.04398 0.37981,0.41361 0.68604,0.90279 0.90478,1.46157 0.22073,0.56076 0.3301,1.13545 0.3301,1.72803 0,1.48941 -0.45935,2.65071 -1.38004,3.48788 m -24.19445,-7.37943 -10.1594,0 0,4.34494 10.1594,0 0,-4.34494 z m -30.61143,8.25836 c -0.2605,0 -0.46333,0.0199 -0.59855,0.0735 -0.14317,0.0458 -0.27839,0.13124 -0.43549,0.25851 l -0.14715,-0.14524 c 0.11534,-0.15702 0.19886,-0.30425 0.25056,-0.44742 0.0576,-0.14525 0.0835,-0.33606 0.0835,-0.58861 l 0,-6.47863 c 0,-0.2088 -0.0259,-0.38776 -0.0835,-0.54883 -0.0517,-0.15702 -0.13522,-0.3122 -0.25056,-0.46532 l 0.16704,-0.16306 c 0.15304,0.12122 0.29032,0.20482 0.4156,0.24658 0.1252,0.0398 0.32413,0.0695 0.59855,0.0795 l 9.9168,0 0,-4.44635 -9.9168,0 c -0.24857,0 -0.43748,0.0199 -0.56872,0.0636 -0.12918,0.0379 -0.28635,0.13124 -0.46532,0.26845 l -0.16703,-0.16704 c 0.14317,-0.20879 0.23464,-0.38378 0.28038,-0.51701 0.0536,-0.14127 0.0736,-0.30226 0.0736,-0.49912 l 0,-5.9815 c 0,-0.20681 -0.0259,-0.38976 -0.0835,-0.54685 -0.0517,-0.15717 -0.13522,-0.32214 -0.25056,-0.48918 l 0.14715,-0.16107 c 0.20681,0.13522 0.38379,0.22471 0.52696,0.2784 0.14318,0.0458 0.31419,0.0716 0.50708,0.0716 l 11.34257,0 -0.49315,-4.53583 -16.41333,0 0,29.37257 16.36958,0 0.5369,-4.53186 -11.34257,0 z m -17.5448,-24.88049 -4.82418,0 0,29.41235 4.82418,0 0,-29.41235 z m -16.81501,0.0398 -4.66112,0 0,18.04989 c 0,0.84314 0.0676,1.71412 0.20681,2.62287 0.13729,0.90081 0.36589,1.9945 0.68206,3.27909 l -0.20879,0.0398 c -0.38379,-1.11556 -0.75564,-2.06409 -1.12153,-2.83365 -0.36589,-0.77553 -0.7974,-1.52521 -1.29454,-2.25897 l -12.97515,-18.899 -4.32705,0 0,29.37258 4.67504,0 0,-18.08568 c 0,-0.77553 -0.0576,-1.54906 -0.17102,-2.3226 -0.11931,-0.76956 -0.35992,-1.95274 -0.71785,-3.54157 l 0.20879,-0.0398 c 0.46731,1.32635 0.84711,2.29675 1.14937,2.92115 0.2943,0.61843 0.71388,1.33032 1.2667,2.1317 l 12.95527,18.93677 4.33301,0 0,-29.37258 z m -38.01076,3.69867 c -2.76207,-2.83763 -6.32949,-4.25148 -10.70426,-4.25148 -4.23556,0 -7.72146,1.43174 -10.46364,4.30517 -2.7402,2.86945 -4.1083,6.50448 -4.1083,10.9051 0,4.4563 1.37407,8.1132 4.12023,10.95879 2.74616,2.85155 6.27182,4.27534 10.57699,4.27534 4.28727,0 7.81691,-1.42379 10.57898,-4.27534 2.75611,-2.84559 4.13813,-6.48857 4.13813,-10.91703 0,-4.50004 -1.38202,-8.16689 -4.13813,-11.00055 m -3.44787,18.67834 c -1.8036,1.94479 -4.1779,2.91718 -7.13087,2.91718 -2.95297,0 -5.33125,-0.97239 -7.13087,-2.91718 -1.80161,-1.94876 -2.69843,-4.51595 -2.69843,-7.71947 0,-3.18563 0.90677,-5.75679 2.72031,-7.70953 1.81552,-1.95473 4.19778,-2.9311 7.15075,-2.9311 2.89331,0 5.2537,0.99029 7.06922,2.97087 1.80957,1.9766 2.72031,4.53782 2.72031,7.66976 0,3.20352 -0.9008,5.77071 -2.70042,7.71947 m -38.24142,2.46379 c -0.26448,0 -0.46731,0.0199 -0.60253,0.0735 -0.13522,0.0458 -0.27243,0.13124 -0.41361,0.25851 l -0.16505,-0.16704 c 0.12727,-0.1392 0.21078,-0.27044 0.25851,-0.39174 0.0496,-0.1252 0.0737,-0.33208 0.0737,-0.62241 l 0,-24.03139 -4.84207,0 0,29.41235 14.92193,0 0.72383,-4.53186 -9.95458,0 z m -24.45694,0 c -0.26049,0 -0.45935,0.0199 -0.59854,0.0735 -0.14127,0.0458 -0.27641,0.13124 -0.41362,0.25851 l -0.16505,-0.16704 c 0.12138,-0.1392 0.21079,-0.27044 0.25851,-0.39174 0.0437,-0.1252 0.0695,-0.33208 0.0695,-0.62241 l 0,-24.03139 -4.84008,0 0,29.41235 14.91994,0 0.7278,-4.53186 -9.95856,0 z m -25.09326,-24.84072 -4.20176,0 -10.67841,29.37258 4.84207,0 3.12597,-8.81515 9.66426,0 3.10608,8.81515 4.82219,0 -10.6804,-29.37258 z m 1.61469,16.43521 c -0.14906,-0.0536 -0.29629,-0.0935 -0.4335,-0.12138 -0.1392,-0.0278 -0.30027,-0.0418 -0.49713,-0.0418 l -5.56789,0 c -0.17698,0 -0.32413,0.01 -0.44344,0.0299 -0.11931,0.0239 -0.27243,0.0656 -0.46731,0.13332 l -0.14524,-0.20283 c 0.12329,-0.0994 0.21874,-0.19488 0.29232,-0.29431 0.0657,-0.0935 0.12933,-0.2247 0.18493,-0.39174 l 2.7919,-8.05156 c 0.12535,-0.34401 0.2247,-0.8312 0.30026,-1.45958 0.0776,-0.62638 0.12934,-1.34225 0.15702,-2.14164 l 0.22669,0 c 0.0278,0.79939 0.0795,1.51526 0.15304,2.14164 0.0795,0.62838 0.17897,1.11557 0.30225,1.45958 l 2.75412,8.05156 c 0.0536,0.16704 0.11931,0.29828 0.19488,0.39174 0.0775,0.0994 0.18294,0.19488 0.32214,0.29431 l -0.12536,0.20283 z m -25.94634,-16.43521 -5.548,19.2967 c -0.22073,0.76757 -0.37186,1.45958 -0.45339,2.06608 -0.0854,0.60651 -0.14906,1.59679 -0.1909,2.95894 l -0.24657,0 c -0.1392,-1.41783 -0.2605,-2.43595 -0.36987,-3.04245 -0.11534,-0.60452 -0.28635,-1.2667 -0.521,-1.98257 l -5.04688,-14.88614 -5.03297,14.92392 c -0.24459,0.69002 -0.42754,1.34027 -0.5389,1.94479 -0.10945,0.6065 -0.23663,1.62462 -0.37185,3.04245 l -0.24857,0 c -0.0438,-1.37805 -0.0994,-2.36437 -0.17499,-2.95894 -0.0775,-0.59457 -0.23266,-1.2826 -0.46531,-2.06608 l -5.548,-19.2967 -5.1324,0 8.90066,29.37258 4.36681,0 3.66089,-11.7363 c 0.11342,-0.37186 0.20482,-0.89086 0.27839,-1.55304 0.0795,-0.66218 0.1392,-1.46754 0.17897,-2.41806 l 0.20681,-0.0199 c 0.0418,0.94853 0.0994,1.75587 0.17896,2.42203 0.0756,0.6582 0.17499,1.18516 0.2963,1.56895 l 3.68474,11.7363 4.32505,0 8.94242,-29.37258 -5.1304,0 z"
       style="fill:#231f20;fill-opacity:1;fill-rule:nonzero;stroke:none"
       id="path96"
       inkscape:connector-curvature="0" />
    <path
       d="m 819.21868,819.51888 -8.45325,0 0,32.76898 c 0,1.53117 0.12536,3.11205 0.37385,4.76055 0.25453,1.63854 0.66616,3.61912 1.24084,5.95167 l -0.3818,0.0775 c -0.69399,-2.03228 -1.37606,-3.74639 -2.04023,-5.15029 -0.66417,-1.40192 -1.45163,-2.76804 -2.35243,-4.09638 l -23.56209,-34.31208 -7.85271,0 0,53.3284 8.49102,0 0,-32.84853 c 0,-1.39794 -0.10738,-2.79985 -0.32413,-4.20574 -0.21078,-1.40589 -0.63831,-3.54754 -1.29055,-6.42892 l 0.37185,-0.0756 c 0.85507,2.40612 1.54509,4.17591 2.09194,5.29943 0.5369,1.12749 1.30646,2.42004 2.31067,3.87167 l 23.52431,34.38765 7.85271,0 0,-53.3284 z m -68.52276,6.70731 c -5.00513,-5.14632 -11.48575,-7.72146 -19.42993,-7.72146 -7.69363,0 -14.03107,2.60895 -18.99643,7.81492 -4.97729,5.21194 -7.455,11.81783 -7.455,19.81173 0,8.08735 2.48765,14.7191 7.4729,19.89524 4.98524,5.17614 11.38433,7.76123 19.20522,7.76123 7.79106,0 14.19811,-2.58509 19.20324,-7.76123 5.0091,-5.17614 7.52062,-11.78005 7.52062,-19.82763 0,-8.16093 -2.51152,-14.82251 -7.52062,-19.9728 M 744.44,860.14654 c -3.27312,3.53163 -7.58823,5.29545 -12.94732,5.29545 -5.36108,0 -9.67619,-1.76382 -12.94732,-5.29545 -3.26716,-3.53163 -4.90968,-8.20667 -4.90968,-14.01516 0,-5.79458 1.65247,-10.45769 4.94547,-14.00125 3.29699,-3.54753 7.62403,-5.3213 12.98511,-5.3213 5.26165,0 9.53897,1.79763 12.83596,5.39289 3.29102,3.59526 4.93752,8.24047 4.93752,13.92966 0,5.80849 -1.63457,10.48353 -4.89974,14.01516 m -58.17246,-40.70522 -8.75152,0 0,53.40198 8.75152,0 0,-53.40198 z m -25.88072,0.0776 -31.56394,0 -1.1275,8.00582 11.04629,0 c 0.47526,0 0.84115,-0.0458 1.08574,-0.12934 0.25254,-0.0894 0.50508,-0.24856 0.75365,-0.47525 l 0.33805,0.30424 c -0.28038,0.39969 -0.44941,0.71985 -0.52895,0.95648 -0.0716,0.23863 -0.10945,0.53094 -0.10945,0.88092 l 0,43.78545 8.63818,0 0,-43.78545 c 0,-0.39969 -0.0337,-0.7278 -0.1252,-0.99824 -0.0896,-0.25652 -0.24459,-0.55082 -0.4693,-0.87893 l 0.30425,-0.29828 c 0.31816,0.25055 0.59656,0.41958 0.82524,0.50906 0.22073,0.0835 0.56474,0.12934 1.01415,0.12934 l 11.08407,0 -1.16528,-8.00582 z m -58.58807,0 -7.62999,0 -19.39612,53.3284 8.79726,0 5.67526,-16.00767 17.55276,0 5.63351,16.00767 8.75748,0 -19.39016,-53.3284 z m 2.93309,29.83988 c -0.28039,-0.0994 -0.54287,-0.173 -0.78945,-0.2247 -0.25254,-0.0496 -0.55679,-0.0796 -0.90876,-0.0796 l -10.10372,0 c -0.32811,0 -0.59457,0.0199 -0.80734,0.0597 -0.21476,0.0339 -0.49316,0.11931 -0.84911,0.24459 l -0.26248,-0.37384 c 0.2247,-0.17897 0.39969,-0.35396 0.52895,-0.52697 0.12329,-0.17697 0.23266,-0.41759 0.33407,-0.71587 l 5.07871,-14.61967 c 0.22271,-0.6244 0.39969,-1.50731 0.54088,-2.65071 0.13728,-1.13744 0.23067,-2.43197 0.28038,-3.88758 l 0.41759,0 c 0.0477,1.45561 0.14127,2.75014 0.27442,3.88758 0.13919,1.1434 0.32413,2.02631 0.54883,2.65071 l 4.99917,14.61967 c 0.0994,0.29828 0.21675,0.5389 0.35992,0.71587 0.13331,0.17301 0.3301,0.348 0.57866,0.52697 l -0.22072,0.37384 z m -57.25178,2.32658 c -0.50111,-0.72184 -1.11357,-1.40589 -1.84137,-2.04421 -0.72582,-0.64031 -1.58089,-1.24681 -2.55725,-1.82547 l 0.14906,-0.2605 c 0.65422,0.173 1.24482,0.30425 1.76979,0.39572 0.52298,0.0856 1.02807,0.13124 1.50333,0.13124 3.30493,0 6.09285,-1.30845 8.35978,-3.92734 2.26692,-2.61691 3.40237,-5.83435 3.40237,-9.64239 0,-4.85996 -1.48145,-8.57255 -4.4384,-11.14372 -2.95296,-2.56322 -7.27205,-3.84979 -12.95925,-3.84979 l -14.0947,0 0,53.3284 8.41745,0 0,-18.7936 c 0,-2.00245 -0.0517,-3.47993 -0.15113,-4.43045 -0.10149,-0.95648 -0.28635,-2.05614 -0.56474,-3.30891 l 0.37384,-0.11534 c 0.42754,1.12949 0.86104,2.10188 1.29453,2.91519 0.43947,0.81331 1.17721,1.94876 2.20131,3.40039 l 13.68307,20.33272 9.54296,0 -14.09072,-21.16194 z m 0.70991,-11.32667 c -1.37606,1.24084 -3.53163,1.86325 -6.46073,1.86325 l -5.1841,0 c -0.48123,0 -0.83519,0.0417 -1.07381,0.12918 -0.23862,0.0856 -0.48918,0.24061 -0.76956,0.46532 l -0.30226,-0.2963 c 0.30226,-0.32413 0.50708,-0.62638 0.62241,-0.90677 0.11136,-0.27441 0.16903,-0.58462 0.16903,-0.93659 l 0,-12.21157 c -0.0994,-0.45338 -0.2088,-0.80734 -0.32016,-1.06983 -0.11135,-0.26646 -0.26845,-0.53491 -0.47128,-0.81132 l 0.30226,-0.30225 c 0.32612,0.24657 0.60054,0.4156 0.82723,0.49116 0.22868,0.0735 0.56275,0.11327 1.01614,0.11327 l 5.1841,0 c 2.90921,0 5.05484,0.61843 6.43687,1.85928 1.40191,1.24084 2.09193,3.15977 2.09193,5.76673 0,2.66066 -0.68604,4.60544 -2.06807,5.84628 m -58.43495,-37.26108 -3.68276,10.33241 6.46273,0 6.91611,-10.33241 -9.69608,0 z m -1.99052,61.52115 c -0.47525,0 -0.83717,0.0418 -1.0917,0.12933 -0.25254,0.0894 -0.51105,0.24459 -0.79143,0.4693 l -0.25454,-0.2605 c 0.19289,-0.27839 0.34402,-0.54486 0.44543,-0.80734 0.0994,-0.26845 0.15304,-0.62241 0.15304,-1.07182 l 0,-11.76613 c 0,-0.36987 -0.0536,-0.70593 -0.15304,-0.99626 -0.10133,-0.28436 -0.25254,-0.56474 -0.44543,-0.84313 l 0.29232,-0.30226 c 0.27243,0.2247 0.53094,0.37981 0.75365,0.45338 0.22669,0.0735 0.59258,0.12727 1.0917,0.15113 l 18.00217,0 0,-8.08138 -18.00217,0 c -0.45338,0 -0.79541,0.0358 -1.03403,0.11135 -0.24061,0.0776 -0.521,0.23863 -0.8491,0.49117 l -0.29828,-0.30027 c 0.25055,-0.3818 0.41958,-0.69399 0.50508,-0.94057 0.0894,-0.25255 0.13713,-0.55281 0.13713,-0.90081 l 0,-10.86533 c 0,-0.37384 -0.0536,-0.70592 -0.15304,-0.99625 -0.10133,-0.28436 -0.25254,-0.58065 -0.44543,-0.88092 l 0.25454,-0.30027 c 0.37981,0.25255 0.69797,0.4176 0.95847,0.50907 0.26646,0.0856 0.57269,0.12933 0.92466,0.12933 l 20.5972,0 -0.90478,-8.23052 -29.80409,0 0,53.3284 29.72455,0 0.98432,-8.22854 -20.5972,0 z m -35.80547,-37.58521 c -5.31534,-5.01109 -12.05049,-7.51465 -20.22136,-7.51465 l -14.31941,0 0,53.3284 14.01715,0 c 8.44529,0 15.30373,-2.51549 20.58129,-7.55443 5.27159,-5.03496 7.90838,-11.39825 7.90838,-19.09386 0,-7.76323 -2.65469,-14.15237 -7.96605,-19.16546 m -6.12467,32.56616 c -3.66288,3.49584 -8.31007,5.24375 -13.94358,5.24375 l -4.20971,0 c -0.5031,0 -0.86502,0.0339 -1.08972,0.11327 -0.22669,0.0716 -0.47327,0.23664 -0.75365,0.4852 l -0.33805,-0.30027 c 0.27243,-0.27441 0.45139,-0.52298 0.52895,-0.75166 0.0716,-0.2247 0.10929,-0.58662 0.10929,-1.08773 l 0,-34.2405 c 0,-0.37384 -0.0418,-0.68604 -0.13125,-0.93858 -0.0854,-0.24857 -0.25851,-0.54884 -0.50707,-0.89882 l 0.33805,-0.33805 c 0.32612,0.25056 0.60451,0.41958 0.82922,0.50906 0.22669,0.0835 0.56275,0.12934 1.01415,0.12934 l 4.61935,0 c 5.46051,0 9.99833,1.75985 13.6095,5.28153 3.60521,3.5197 5.4088,7.98395 5.4088,13.39276 0,5.43863 -1.83143,9.90685 -5.48436,13.4007 m -65.50616,-56.5021 -3.68276,10.33241 6.46471,0 6.91611,-10.33241 -9.69806,0 z m -1.99251,61.52115 c -0.47327,0 -0.83717,0.0418 -1.08773,0.12933 -0.25055,0.0894 -0.51701,0.24459 -0.78944,0.4693 l -0.26448,-0.2605 c 0.20283,-0.27839 0.35595,-0.54486 0.4514,-0.80734 0.0994,-0.26845 0.15304,-0.62241 0.15304,-1.07182 l 0,-11.76613 c 0,-0.36987 -0.0536,-0.70593 -0.15304,-0.99626 -0.0954,-0.28436 -0.24857,-0.56474 -0.4514,-0.84313 l 0.30425,-0.30226 c 0.27442,0.2247 0.52497,0.37981 0.74967,0.45338 0.2267,0.0735 0.5906,0.12727 1.08773,0.15113 l 18.00216,0 0,-8.08138 -18.00216,0 c -0.44742,0 -0.78945,0.0358 -1.03006,0.11135 -0.23862,0.0776 -0.52099,0.23863 -0.84711,0.49117 l -0.30027,-0.30027 c 0.24857,-0.3818 0.42157,-0.69399 0.50707,-0.94057 0.0896,-0.25255 0.13332,-0.55281 0.13332,-0.90081 l 0,-10.86533 c 0,-0.37384 -0.0536,-0.70592 -0.15304,-0.99625 -0.0954,-0.28436 -0.24857,-0.58065 -0.4514,-0.88092 l 0.26448,-0.30027 c 0.37384,0.25255 0.69797,0.4176 0.96046,0.50907 0.26248,0.0856 0.56872,0.12933 0.91671,0.12933 l 20.59719,0 -0.90279,-8.23052 -29.79812,0 0,53.3284 29.72852,0 0.97239,-8.22854 -20.59719,0 z m -27.56699,-45.09986 -30.02681,0 0,53.3284 8.79726,0 0,-21.53578 c 0,-0.44742 -0.0477,-0.79144 -0.13331,-1.03205 -0.0894,-0.23862 -0.2426,-0.51901 -0.4693,-0.84711 l 0.29828,-0.29828 c 0.32413,0.24856 0.60452,0.41958 0.82922,0.50707 0.22669,0.0896 0.56673,0.13331 1.01216,0.13331 l 17.85104,0 0,-8.08138 -18.00217,0 c -0.54684,0 -0.92466,0.0358 -1.1255,0.11135 -0.19687,0.0776 -0.4514,0.2267 -0.74968,0.4514 l -0.30226,-0.2605 c 0.32612,-0.3818 0.5389,-0.69399 0.63832,-0.94057 0.0994,-0.25255 0.15304,-0.55281 0.15304,-0.90081 l 0,-10.78976 c -0.1015,-0.52696 -0.20283,-0.89882 -0.30425,-1.12352 -0.0974,-0.22868 -0.26049,-0.46532 -0.48719,-0.71587 l 0.34004,-0.30027 c 0.32413,0.25056 0.59855,0.41163 0.82524,0.48719 0.22471,0.0735 0.56475,0.11136 1.01216,0.11136 l 21.23552,0 -1.39197,-8.3041 z"
       style="fill:#231f20;fill-opacity:1;fill-rule:nonzero;stroke:none"
       id="path100"
       inkscape:connector-curvature="0" />
  </g>
</svg>
