<?xml version="1.0" encoding="UTF-8"?>
<svg id="Layer_1" data-name="Layer 1" xmlns="http://www.w3.org/2000/svg" viewBox="0 0 773.13 783.1">
  <defs>
    <style>
      .cls-1 {
        fill: #65BD47;
      }

      .cls-2 {
        fill: none;
        stroke: #65BD47;
        stroke-miterlimit: 10;
        stroke-width: 25px;
      }
    </style>
  </defs>
  <path class="cls-1" d="M543.69,104.69c-19.75-15.12-41.65-27.88-64.78-37.05,0,0-7.75-2.97-7.75-2.97-1.51-.57-8.48-2.81-9.83-3.31-2.84-.8-7.1-2.08-9.95-2.89-2.96-.71-7.13-1.76-10.06-2.46,0,0-2.03-.4-2.03-.4,0,0-8.12-1.61-8.12-1.61l-8.18-1.25c-24.49-3.38-49.71-2.65-73.92,2.34-5.43.98-12.66,2.89-18.03,4.31-3.64,1.12-8.16,2.54-11.79,3.69-3.65,1.37-9.94,3.55-13.48,5.09-5.88,2.38-13,5.67-18.73,8.51-7.02,3.57-14.74,7.99-21.48,12.13-2.36,1.49-8.03,5.34-10.29,6.8-34.64,24.25-64.08,56.39-83.92,93.81-2.35,4.1-5.15,10.34-7.24,14.61,0,0-3.15,7.51-3.15,7.51-4.11,10-7.56,20.37-10.1,30.87-.22,1.04-1.22,4.83-1.46,5.9-.46,2.28-1.46,7.78-1.89,9.95-.55,2.5-.75,5.51-1.15,8.01-.27,2.14-.82,5.83-.89,8.03,0,0-.61,8.06-.61,8.06-.2,3.93-.09,8.16-.23,12.1.1,3.82.41,7.92.83,11.75,14.01,94.17,115.97,236.44,173.24,315.5,26.24,35.53,53.28,70.68,81.23,104.85,0,0-19.44,0-19.44,0,4.59-5.3,9.23-10.76,13.81-16.2,68.64-82.19,134.34-167.24,190.36-258.66-52.87,102-116.93,197.93-184.73,290.57,0,0-9,12.08-9,12.08-10.97-12.08-21.17-25.93-30.9-38.71-60.26-80.33-117.83-162.95-166.75-250.79-10.81-19.64-21.11-39.57-30.42-59.99-13.8-30.87-26.74-63.08-30.61-97.19-.38-4.32-.61-8.87-.62-13.19.14-4.22.34-8.71.54-12.88.42-3.22.85-9.75,1.33-12.81.3-2.14,1.02-6.34,1.33-8.47.57-3.87,2.19-10.81,3-14.68,1.97-7.56,4.19-15.15,6.75-22.51,2.73-7.68,6.35-16.17,9.79-23.62,21.45-44.57,55.65-82.66,96.8-109.97,2.29-1.51,8.36-5.2,10.73-6.73,7.02-4.08,15.02-8.44,22.32-11.92,7.36-3.4,15.73-7.02,23.33-9.74,1.32-.49,8.76-2.97,9.97-3.4,3.74-1.09,8.4-2.43,12.15-3.49,5.51-1.29,12.94-3.11,18.52-3.97,24.73-4.51,50.48-4.66,75.29-.64,0,0,8.26,1.46,8.26,1.46,0,0,8.18,1.82,8.18,1.82,0,0,2.04.46,2.04.46,2.96.77,7.15,1.95,10.11,2.72,2.78.93,7.19,2.23,9.98,3.15,2.94,1.04,7.18,2.63,9.83,3.57,0,0,7.74,3.17,7.74,3.17,22.98,9.74,44.68,23.06,64.11,38.67h0Z"/>
  <circle class="cls-2" cx="390.17" cy="307.17" r="89.01"/>
</svg>