<?xml version="1.0" encoding="UTF-8"?>
<svg id="Layer_1" data-name="Layer 1" xmlns="http://www.w3.org/2000/svg" viewBox="0 0 773.13 783.1">
  <defs>
    <style>
      .cls-1 {
        fill: #231f20;
      }
    </style>
  </defs>
  <path class="cls-1" d="M698.66,484.1c-9.37-6.44-18.28-13.34-27.12-20.33-1.86-1.42-3.79-2.75-5.72-4.06,0,0-2.96-1.81-2.96-1.81-26.9-16.03-62.82-13.12-85.6,7.84-2.44,2.15-5.6,5.52-8.12,8.03-12.81,12.96-29.64,21.88-47.62,24.97-24.03,4.32-49.72-1.82-69.13-16.72-6.1-4.43-14.71-13.54-20.23-18.87-36.22-35.78-83.77-82.51-119.69-118.25-28.17-28.51-33.34-75.54-12.21-109.59,3.04-5.03,6.58-9.76,10.52-14.1,1.29-1.35,5.91-6.22,7.03-7.69,5.75-7.11,9.93-15.49,12.11-24.35,3.95-15.73,1.52-33.01-6.76-46.95-4.53-7.85-10.08-12.94-16.95-19.73,0,0-21.19-21.03-21.19-21.03,0,0-5.29-5.27-5.29-5.27-4.53-4.56-9.16-9.21-14.59-12.59-20.24-13.38-48.29-13.16-68.32.53-6.29,3.8-14.46,13.01-19.78,18.15,0,0-42.2,42.24-42.2,42.24,0,0-21.11,21.11-21.11,21.11-6.02,5.9-12.41,12.22-16.38,19.7-12.02,21.01-10.04,48.84,4.82,67.96,2.43,3.34,5.78,6.62,8.72,9.57,124.52,125.21,285.14,286.81,409.68,413.55,4.95,4.96,14.91,15.81,20.18,20.72,22.9,21.1,59.14,23.23,84.97,5.91,2.66-1.65,5.14-3.66,7.56-5.64,16.33-14.07,32.77-27.97,49.83-41.2-12.26,15.84-25.14,31.1-38.14,46.29-6.83,8.28-14.86,15.57-24.32,20.79-29.56,16.96-68.68,13.22-94.87-8.56-3.57-2.89-8.33-7.52-11.67-10.74-133.38-130.76-298.34-294.54-429.9-425.74-34.06-35.92-32.56-94.17,3.04-128.54,16.4-16.44,51.84-51.8,68.62-68.59,7.07-6.96,15.97-16.55,24.43-21.79,19.79-13.21,44.76-18.16,68.09-13.62,18.78,3.49,36.32,13.31,49.45,27.12,1.46,1.43,6.32,6.38,7.9,7.93,8.12,8.4,24.55,24.3,32.05,32.6,19.65,22.19,27.13,54.16,19.58,82.78-3.62,14.26-10.88,27.59-20.75,38.48,0,0-5.23,5.47-5.23,5.47-14.02,14.97-19.88,36.91-15.29,56.91,2.54,11.54,8.46,22.26,16.73,30.69,34.94,35.36,81.61,82.58,116.66,118.16,4.3,4.21,12.81,13.49,17.62,17.07,7.43,5.83,16.15,9.98,25.38,12.1,21.45,5.11,45.09-1.61,60.71-17.19,0,0,.66-.66.66-.66,0,0,2.66-2.62,2.66-2.62,17.37-18.38,43.66-28.49,68.83-25.69,17.93,1.79,34.86,9.6,47.57,22.17,9.61,10.2,17.59,21.65,25.76,33.08h0Z"/>
</svg>