<?xml version="1.0" encoding="UTF-8"?>
<svg id="Layer_1" data-name="Layer 1" xmlns="http://www.w3.org/2000/svg" viewBox="0 0 773.13 783.1">
  <defs>
    <style>
      .cls-1 {
        fill: #65BD47;
      }
    </style>
  </defs>
  <path class="cls-1" d="M698.66,484.1c-9.63-4.44-18.56-9.58-27.29-14.93-3.86-2.49-7.9-4.61-12.07-6.44-25.35-10.99-55.18-6.8-74.64,11.4-1.46,1.27-2.91,2.89-4.3,4.27-15.04,16.45-34.86,27.91-56.91,31.8-28.81,5.35-59.78-2.73-82.27-21.64-4.53-3.64-13.33-12.58-17.7-16.74-37.25-36.37-85.65-83.03-122.41-119.53-38.44-41.53-36.14-106.45,4.32-145.83,5.18-5.94,8.93-13.12,10.72-20.78,4.17-17.55-1.58-35.58-14.91-47.66-4.78-4.75-21.76-21.42-26.57-26.2,0,0-5.31-5.25-5.31-5.25,0,0-2.65-2.62-2.65-2.62-11.29-12.23-28.61-17.88-44.87-14.39-9.01,1.86-17.3,6.32-23.77,12.84,0,0-10.42,10.47-10.42,10.47-13.97,14.03-49.72,49.87-63.24,63.41-1.89,1.9-5.51,5.46-7.17,7.25-16.22,16.86-16.93,44.64-1.76,62.43,66.84,68.04,159.1,160.92,226.11,229.46,22.12,23.01,179.97,183.16,197.77,203.3,0,0,5.05,5.51,5.05,5.51,0,0,2.02,2.19,2.02,2.19.57.67,1.2,1.27,1.82,1.89,5.06,4.95,10.97,9.01,17.51,11.87,19.37,8.72,43.42,6.18,61.22-5.8,0,0,1.32-.88,1.32-.88,0,0,.67-.44.67-.44,0,0,.75-.56.75-.56,9.08-6.77,18.29-13.38,27.71-19.79,8.36-5.71,16.84-11.31,25.69-16.52-5.22,8.86-10.81,17.33-16.52,25.69-6.58,9.69-13.39,19.12-20.36,28.46-2.52,3.08-5.14,6.22-8.07,8.94-31.93,31.27-85.24,32.19-119.87,4.21-3.98-2.98-8.9-7.83-12.59-11.12-132.66-127.05-296.51-289.44-426.45-417.89-25.36-23.5-38.25-57.52-33.99-91.95,2.64-22.29,12.63-43.76,28.03-60.13,5.57-5.94,23.71-23.63,29.7-29.76,7.75-7.95,46-45.72,52.99-52.77,14.68-14.57,33.86-24.72,54.14-28.69,33.85-6.95,70.62,3.93,95.14,28.28,6.91,6.75,24.65,25,31.81,32.17,1.33,1.3,5.43,5.55,6.55,6.65,6.56,6.64,12.32,14.07,16.97,22.19,23.74,40.55,16.54,94.38-17.06,127.18-2.85,2.85-5.54,5.97-7.65,9.39-10.96,16.96-10,40.56,2.41,56.56,1.17,1.62,2.61,3.2,3.96,4.67,7.32,7.5,25.04,25.64,32.58,33.36,26.72,27.27,69.2,71.09,95.8,98.31,6.74,6.6,15.21,11.28,24.43,13.52,17.61,4.42,37.16-.92,50.18-13.62,1.18-1.18,3.5-3.38,4.68-4.55,19.5-19.72,48.6-29.89,75.93-25.81,19.7,2.78,37.84,12.27,50.63,27.18,2.69,3.18,5.16,6.6,7.28,10.14,5.35,8.73,10.49,17.66,14.93,27.29h0Z"/>
</svg>