<?xml version="1.0" encoding="UTF-8"?>
<svg id="Layer_1" data-name="Layer 1" xmlns="http://www.w3.org/2000/svg" viewBox="0 0 773.13 783.1">
  <defs>
    <style>
      .cls-1 {
        fill: #65BD47;
      }

      .cls-2 {
        fill: none;
        stroke: #65BD47;
        stroke-miterlimit: 10;
        stroke-width: 50px;
      }
    </style>
  </defs>
  <path class="cls-1" d="M543.69,104.69c-19.91-14.88-41.9-27.35-65.11-36.23,0,0-7.76-2.87-7.76-2.87-1.52-.52-8.47-2.72-9.83-3.18-2.84-.76-7.09-1.99-9.94-2.76-2.95-.66-7.11-1.66-10.04-2.33,0,0-2.03-.38-2.03-.38,0,0-8.09-1.5-8.09-1.5,0,0-8.15-1.14-8.15-1.14-24.33-3.06-49.29-2.05-73.23,3.2-5.35,1.04-12.49,3.02-17.79,4.48-3.59,1.15-8.04,2.61-11.62,3.79-3.6,1.4-9.78,3.63-13.27,5.2-5.78,2.42-12.78,5.75-18.41,8.63-6.88,3.61-14.45,8.07-21.07,12.24-2.33,1.5-7.85,5.37-10.08,6.83-35.94,25.82-66,60.35-84.99,100.41,0,0-3.35,7.24-3.35,7.24-1.65,4.2-4.41,10.54-5.77,14.82-3.39,9.29-5.9,18.9-8.05,28.54-.92,5.2-2.25,12.23-2.73,17.48-.25,2.12-.72,5.64-.77,7.8-.35,4.43-.63,11.19-.55,15.62.08,103.05,178.86,331.19,248.06,415.6,0,0,5.25,6.33,5.25,6.33,0,0,5.21,6.21,5.21,6.21,0,0-38.89,0-38.89,0,6.71-7.27,14.72-15.94,21.45-23.47,68.91-77.23,135.15-157.14,192.44-243.53-12.2,25.96-25.19,51.66-38.87,77-41.46,76.09-87.21,149.86-136.13,221.43,0,0-16.68,24.05-16.68,24.05,0,0-22.21-24.05-22.21-24.05-27.15-35.68-53.38-72.31-78.71-109.27-54.7-81.05-167.52-250.65-166.92-346.38.19-4.34.44-8.98.7-13.28.45-3.29.99-10.05,1.51-13.17.33-2.19,1.11-6.51,1.46-8.7.41-2.72,2.11-10.07,2.76-12.9.46-2.34,1.64-6.13,2.28-8.48,2.67-9.84,6.34-19.42,10.2-28.84,21.12-48.84,57.29-90.84,101.52-120.22,1.74-1.22,5.35-3.56,7.19-4.63,0,0,7.3-4.45,7.3-4.45,2.55-1.37,8.72-4.88,11.23-6.18,13.74-7.07,28.55-13.31,43.32-17.9,3.74-1.28,8.49-2.4,12.29-3.5,4.76-1.23,11.78-2.81,16.63-3.65,12.37-2.24,25.44-3.67,38.02-3.79,20.34-.44,41.03,2.31,60.71,7.27,2.97.8,7.17,2.04,10.13,2.85,2.79.96,7.19,2.32,9.99,3.29,2.9,1.05,7.21,2.74,9.83,3.7,2.3,1.03,9.29,3.84,11.56,4.99,1.81.91,5.75,2.68,7.58,3.59,1.77.98,5.63,2.9,7.43,3.88,15.82,8.51,31.11,18.91,44.95,30.3h0Z"/>
  <circle class="cls-2" cx="390.17" cy="307.17" r="89.01"/>
</svg>